<svg xmlns="http://www.w3.org/2000/svg" width="375" viewBox="0 0 375 120" height="120" version="1.0"><g><g><g><path d="M 10.175781 -28.617188 L 10.175781 0 C 13.300781 0 16.429688 0 19.554688 0 L 19.554688 -28.617188 L 28.617188 -28.617188 C 28.617188 -31.480469 28.617188 -34.289062 28.617188 -37.097656 L 1.058594 -37.097656 C 1.058594 -34.289062 1.058594 -31.480469 1.058594 -28.617188 Z M 10.175781 -28.617188" transform="translate(2.344 77.746)"/></g></g></g><g><g><g><path d="M 27.875 -37.097656 C 19.183594 -37.097656 13.300781 -37.097656 4.714844 -37.097656 C 4.714844 -24.800781 4.714844 -12.402344 4.714844 0 C 13.300781 0 19.660156 0 28.351562 0 C 28.351562 -2.808594 28.351562 -5.671875 28.351562 -8.425781 C 22.789062 -8.425781 19.609375 -8.425781 14.148438 -8.425781 C 14.148438 -10.652344 14.148438 -12.773438 14.148438 -14.945312 L 26.761719 -14.945312 C 26.761719 -17.753906 26.761719 -20.5625 26.761719 -23.371094 L 14.148438 -23.371094 L 14.148438 -28.617188 C 19.609375 -28.617188 22.363281 -28.617188 27.875 -28.617188 C 27.875 -31.480469 27.875 -34.339844 27.875 -37.097656 Z M 27.875 -37.097656" transform="translate(32.125 77.746)"/></g></g></g><g><g><g><path d="M 14.203125 -37.097656 C 10.96875 -37.097656 7.84375 -37.097656 4.664062 -37.097656 L 4.664062 0 C 12.1875 0 20.03125 0 27.664062 0 C 27.664062 -3.179688 27.664062 -5.351562 27.664062 -8.53125 L 14.203125 -8.53125 C 14.203125 -24.324219 14.203125 -17.914062 14.203125 -37.097656 Z M 14.203125 -37.097656" transform="translate(63.92 77.746)"/></g></g></g><g><g><g><path d="M 27.875 -37.097656 C 19.183594 -37.097656 13.300781 -37.097656 4.714844 -37.097656 C 4.714844 -24.800781 4.714844 -12.402344 4.714844 0 C 13.300781 0 19.660156 0 28.351562 0 C 28.351562 -2.808594 28.351562 -5.671875 28.351562 -8.425781 C 22.789062 -8.425781 19.609375 -8.425781 14.148438 -8.425781 C 14.148438 -10.652344 14.148438 -12.773438 14.148438 -14.945312 L 26.761719 -14.945312 C 26.761719 -17.753906 26.761719 -20.5625 26.761719 -23.371094 L 14.148438 -23.371094 L 14.148438 -28.617188 C 19.609375 -28.617188 22.363281 -28.617188 27.875 -28.617188 C 27.875 -31.480469 27.875 -34.339844 27.875 -37.097656 Z M 27.875 -37.097656" transform="translate(93.384 77.746)"/></g></g></g><g><g><g><path d="M 14.203125 0 L 14.203125 -9.484375 L 21.039062 -9.484375 C 38.792969 -9.484375 38.792969 -37.042969 21.039062 -37.097656 C 15.582031 -37.097656 10.070312 -37.097656 4.714844 -37.097656 C 4.714844 -24.695312 4.714844 -12.347656 4.714844 0 C 7.84375 0 11.023438 0 14.203125 0 Z M 20.984375 -18.019531 L 14.203125 -18.019531 C 14.203125 -21.039062 14.203125 -25.597656 14.203125 -28.617188 C 16.375 -28.617188 18.761719 -28.671875 20.984375 -28.617188 C 26.496094 -28.5625 26.179688 -18.019531 20.984375 -18.019531 Z M 20.984375 -18.019531" transform="translate(125.18 77.746)"/></g></g></g><g><g><g><path d="M 35.613281 -37.097656 C 32.378906 -37.097656 29.148438 -37.097656 25.914062 -37.097656 L 25.914062 -23.636719 L 14.46875 -23.636719 L 14.46875 -37.097656 C 11.234375 -37.097656 7.949219 -37.097656 4.769531 -37.097656 L 4.769531 0 C 7.949219 0 11.234375 0 14.46875 0 L 14.46875 -14.890625 L 25.914062 -14.890625 L 25.914062 0 C 29.148438 0 32.378906 0 35.613281 0 Z M 35.613281 -37.097656" transform="translate(161.956 77.746)"/></g></g></g><g><g><g><path d="M 40.488281 -18.496094 C 40.488281 -44.144531 2.4375 -44.144531 2.4375 -18.496094 C 2.4375 7.207031 40.488281 7.207031 40.488281 -18.496094 Z M 12.1875 -18.496094 C 12.1875 -31.851562 30.789062 -31.851562 30.789062 -18.496094 C 30.789062 -5.035156 12.1875 -5.035156 12.1875 -18.496094 Z M 12.1875 -18.496094" transform="translate(202.336 77.746)"/></g></g></g><g><g><g><path d="M 33.226562 0.0546875 L 36.621094 0.0546875 L 36.621094 -37.097656 C 33.386719 -37.097656 30.152344 -37.097656 26.921875 -37.097656 L 26.921875 -18.917969 L 8.160156 -37.253906 L 4.714844 -37.253906 L 4.714844 0 C 7.949219 0 11.234375 0 14.519531 0 L 14.519531 -18.230469 Z M 33.226562 0.0546875" transform="translate(245.26 77.746)"/></g></g></g><g><g><g><path d="M 15.738281 -8.320312 L 15.738281 -28.828125 L 20.085938 -28.828125 C 20.085938 -32.007812 20.085938 -33.96875 20.085938 -37.097656 C 14.042969 -37.097656 8.054688 -37.097656 2.015625 -37.097656 C 2.015625 -33.96875 2.015625 -32.007812 2.015625 -28.828125 L 6.359375 -28.828125 L 6.359375 -8.320312 L 1.644531 -8.320312 C 1.644531 -5.195312 1.644531 -3.234375 1.644531 0 C 7.949219 0 14.148438 0 20.457031 0 C 20.457031 -3.234375 20.457031 -5.195312 20.457031 -8.320312 Z M 15.738281 -8.320312" transform="translate(286.594 77.746)"/></g></g></g><g><g><g><path d="M 11.289062 -11.339844 C 8.054688 -11.339844 5.300781 -11.339844 2.121094 -11.339844 C 1.90625 4.980469 32.113281 4.558594 32.113281 -11.023438 C 32.113281 -20.296875 24.90625 -21.25 17.542969 -22.046875 C 14.203125 -22.417969 11.445312 -23 11.660156 -25.808594 C 11.976562 -30.207031 21.941406 -30.632812 21.941406 -25.703125 C 25.171875 -25.703125 27.609375 -25.703125 30.949219 -25.703125 C 31.160156 -41.707031 2.332031 -41.707031 2.648438 -25.703125 C 2.753906 -17.648438 8.054688 -14.890625 16.109375 -14.308594 C 19.820312 -14.097656 22.894531 -13.671875 22.894531 -11.074219 C 22.894531 -6.730469 11.289062 -6.625 11.289062 -11.339844 Z M 11.289062 -11.339844" transform="translate(308.533 77.746)"/></g></g></g><g><g><g><path d="M 10.175781 -28.617188 L 10.175781 0 C 13.300781 0 16.429688 0 19.554688 0 L 19.554688 -28.617188 L 28.617188 -28.617188 C 28.617188 -31.480469 28.617188 -34.289062 28.617188 -37.097656 L 1.058594 -37.097656 C 1.058594 -34.289062 1.058594 -31.480469 1.058594 -28.617188 Z M 10.175781 -28.617188" transform="translate(342.872 77.746)"/></g></g></g></svg>